<mxfile host="drawio-plugin" modified="2024-04-02T22:54:18.308Z" agent="5.0 (Macintosh; Intel Mac OS X 10_15_7) AppleWebKit/537.36 (KHTML, like Gecko) Chrome/111.0.0.0 Safari/537.36" etag="4KSvgEAuErAEyVNVdvXv" version="20.5.3" type="embed"><diagram id="23iRSUPoRavnBvh4doch" name="Page-1"><mxGraphModel dx="812" dy="855" grid="1" gridSize="10" guides="1" tooltips="1" connect="1" arrows="1" fold="1" page="1" pageScale="1" pageWidth="827" pageHeight="1169" math="0" shadow="0"><root><mxCell id="0"/><mxCell id="1" parent="0"/><mxCell id="26" value="Event" style="swimlane;fontStyle=0;childLayout=stackLayout;horizontal=1;startSize=26;horizontalStack=0;resizeParent=1;resizeParentMax=0;resizeLast=0;collapsible=1;marginBottom=0;align=center;fontSize=14;rounded=1;" parent="1" vertex="1"><mxGeometry x="120" y="290" width="180" height="176" as="geometry"/></mxCell><mxCell id="27" value="&lt;&lt;oid&gt;&gt;  id : String" style="text;strokeColor=none;fillColor=none;spacingLeft=4;spacingRight=4;overflow=hidden;rotatable=0;points=[[0,0.5],[1,0.5]];portConstraint=eastwest;fontSize=12;" parent="26" vertex="1"><mxGeometry y="26" width="180" height="30" as="geometry"/></mxCell><mxCell id="28" value="title : String" style="text;strokeColor=none;fillColor=none;spacingLeft=4;spacingRight=4;overflow=hidden;rotatable=0;points=[[0,0.5],[1,0.5]];portConstraint=eastwest;fontSize=12;" parent="26" vertex="1"><mxGeometry y="56" width="180" height="30" as="geometry"/></mxCell><mxCell id="29" value="details : String" style="text;strokeColor=none;fillColor=none;spacingLeft=4;spacingRight=4;overflow=hidden;rotatable=0;points=[[0,0.5],[1,0.5]];portConstraint=eastwest;fontSize=12;" parent="26" vertex="1"><mxGeometry y="86" width="180" height="30" as="geometry"/></mxCell><mxCell id="30" value="slug : String" style="text;strokeColor=none;fillColor=none;spacingLeft=4;spacingRight=4;overflow=hidden;rotatable=0;points=[[0,0.5],[1,0.5]];portConstraint=eastwest;fontSize=12;" parent="26" vertex="1"><mxGeometry y="116" width="180" height="30" as="geometry"/></mxCell><mxCell id="31" value="maximumAttendees : Integer" style="text;strokeColor=none;fillColor=none;spacingLeft=4;spacingRight=4;overflow=hidden;rotatable=0;points=[[0,0.5],[1,0.5]];portConstraint=eastwest;fontSize=12;" parent="26" vertex="1"><mxGeometry y="146" width="180" height="30" as="geometry"/></mxCell><mxCell id="32" value="Attendee" style="swimlane;fontStyle=0;childLayout=stackLayout;horizontal=1;startSize=26;horizontalStack=0;resizeParent=1;resizeParentMax=0;resizeLast=0;collapsible=1;marginBottom=0;align=center;fontSize=14;rounded=1;" parent="1" vertex="1"><mxGeometry x="410" y="260" width="180" height="146" as="geometry"/></mxCell><mxCell id="33" value="&lt;&lt;oid&gt;&gt;  id : String" style="text;strokeColor=none;fillColor=none;spacingLeft=4;spacingRight=4;overflow=hidden;rotatable=0;points=[[0,0.5],[1,0.5]];portConstraint=eastwest;fontSize=12;" parent="32" vertex="1"><mxGeometry y="26" width="180" height="30" as="geometry"/></mxCell><mxCell id="34" value="name : String" style="text;strokeColor=none;fillColor=none;spacingLeft=4;spacingRight=4;overflow=hidden;rotatable=0;points=[[0,0.5],[1,0.5]];portConstraint=eastwest;fontSize=12;" parent="32" vertex="1"><mxGeometry y="56" width="180" height="30" as="geometry"/></mxCell><mxCell id="35" value="email : String" style="text;strokeColor=none;fillColor=none;spacingLeft=4;spacingRight=4;overflow=hidden;rotatable=0;points=[[0,0.5],[1,0.5]];portConstraint=eastwest;fontSize=12;" parent="32" vertex="1"><mxGeometry y="86" width="180" height="30" as="geometry"/></mxCell><mxCell id="36" value="createdAt : DateTime" style="text;strokeColor=none;fillColor=none;spacingLeft=4;spacingRight=4;overflow=hidden;rotatable=0;points=[[0,0.5],[1,0.5]];portConstraint=eastwest;fontSize=12;" parent="32" vertex="1"><mxGeometry y="116" width="180" height="30" as="geometry"/></mxCell><mxCell id="uJdjDPLJVzHpg9Jetpsf-41" value="Checkin" style="swimlane;fontStyle=0;childLayout=stackLayout;horizontal=1;startSize=26;horizontalStack=0;resizeParent=1;resizeParentMax=0;resizeLast=0;collapsible=1;marginBottom=0;align=center;fontSize=14;rounded=1;" parent="1" vertex="1"><mxGeometry x="410" y="90" width="180" height="86" as="geometry"/></mxCell><mxCell id="uJdjDPLJVzHpg9Jetpsf-42" value="&lt;&lt;oid&gt;&gt;  id : String" style="text;strokeColor=none;fillColor=none;spacingLeft=4;spacingRight=4;overflow=hidden;rotatable=0;points=[[0,0.5],[1,0.5]];portConstraint=eastwest;fontSize=12;" parent="uJdjDPLJVzHpg9Jetpsf-41" vertex="1"><mxGeometry y="26" width="180" height="30" as="geometry"/></mxCell><mxCell id="uJdjDPLJVzHpg9Jetpsf-45" value="createdAt : DateTime" style="text;strokeColor=none;fillColor=none;spacingLeft=4;spacingRight=4;overflow=hidden;rotatable=0;points=[[0,0.5],[1,0.5]];portConstraint=eastwest;fontSize=12;" parent="uJdjDPLJVzHpg9Jetpsf-41" vertex="1"><mxGeometry y="56" width="180" height="30" as="geometry"/></mxCell><mxCell id="uJdjDPLJVzHpg9Jetpsf-47" value="" style="edgeStyle=entityRelationEdgeStyle;fontSize=12;html=1;endArrow=ERzeroToMany;startArrow=ERmandOne;rounded=0;" parent="1" source="26" target="32" edge="1"><mxGeometry width="100" height="100" relative="1" as="geometry"><mxPoint x="370" y="503" as="sourcePoint"/><mxPoint x="470" y="403" as="targetPoint"/></mxGeometry></mxCell><mxCell id="uJdjDPLJVzHpg9Jetpsf-49" value="" style="edgeStyle=entityRelationEdgeStyle;fontSize=12;html=1;endArrow=ERmandOne;startArrow=ERmandOne;rounded=0;" parent="1" source="32" target="uJdjDPLJVzHpg9Jetpsf-41" edge="1"><mxGeometry width="100" height="100" relative="1" as="geometry"><mxPoint x="440" y="230" as="sourcePoint"/><mxPoint x="540" y="130" as="targetPoint"/></mxGeometry></mxCell></root></mxGraphModel></diagram></mxfile>